<svg xmlns="http://www.w3.org/2000/svg"><defs><symbol id="barbell" viewBox="0 0 24 24"><path stroke="none" d="M0 0h24v24H0z"/><path d="M2 12h1m3-4H4a1 1 0 0 0-1 1v6a1 1 0 0 0 1 1h2m0-9v10a1 1 0 0 0 1 1h1a1 1 0 0 0 1-1V7a1 1 0 0 0-1-1H7a1 1 0 0 0-1 1m3 5h6m0-5v10a1 1 0 0 0 1 1h1a1 1 0 0 0 1-1V7a1 1 0 0 0-1-1h-1a1 1 0 0 0-1 1m3 1h2a1 1 0 0 1 1 1v6a1 1 0 0 1-1 1h-2m4-4h-1"/></symbol><symbol id="chevron-right" viewBox="0 0 24 24"><path stroke="none" d="M0 0h24v24H0z"/><path d="m9 6 6 6-6 6"/></symbol><symbol id="close" viewBox="0 0 24 24"><path stroke="none" d="M0 0h24v24H0z"/><path d="M18 6 6 18M6 6l12 12"/></symbol><symbol id="error" viewBox="0 0 24 24"><path stroke="none" d="M0 0h24v24H0z"/><path d="M3 12a9 9 0 1 0 18 0 9 9 0 1 0-18 0m9-3v4m0 3v.01"/></symbol><symbol id="home" viewBox="0 0 24 24"><path stroke="none" d="M0 0h24v24H0z"/><path d="M5 12H3l9-9 9 9h-2M5 12v7a2 2 0 0 0 2 2h10a2 2 0 0 0 2-2v-7"/><path d="M9 21v-6a2 2 0 0 1 2-2h2a2 2 0 0 1 2 2v6"/></symbol><symbol id="plus" viewBox="0 0 24 24"><path stroke="none" d="M0 0h24v24H0z"/><path d="M7 5.667A2.667 2.667 0 0 1 9.667 3h8.666A2.667 2.667 0 0 1 21 5.667v8.666A2.667 2.667 0 0 1 18.333 17H9.667A2.667 2.667 0 0 1 7 14.333z"/><path d="M4.012 7.26A2 2 0 0 0 3 8.997v10c0 1.1.9 2 2 2h10c.75 0 1.158-.385 1.5-1M11 10h6m-3-3v6"/></symbol><symbol id="stopwatch" viewBox="0 0 24 24"><path stroke="none" d="M0 0h24v24H0z"/><path d="M5 13a7 7 0 1 0 14 0 7 7 0 0 0-14 0m9.5-2.5L12 13m5-5 1-1m-4-4h-4"/></symbol><symbol id="success" viewBox="0 0 24 24"><path stroke="none" d="M0 0h24v24H0z"/><path d="M3 12a9 9 0 1 0 18 0 9 9 0 1 0-18 0"/><path d="m9 12 2 2 4-4"/></symbol><symbol id="user" viewBox="0 0 24 24"><path stroke="none" d="M0 0h24v24H0z"/><path d="M8 7a4 4 0 1 0 8 0 4 4 0 0 0-8 0M6 21v-2a4 4 0 0 1 4-4h4a4 4 0 0 1 4 4v2"/></symbol></defs></svg>