<svg xmlns="http://www.w3.org/2000/svg"><defs><symbol id="barbell" viewBox="0 0 24 24"><path stroke="none" d="M0 0h24v24H0z"/><path d="M2 12h1m3-4H4a1 1 0 0 0-1 1v6a1 1 0 0 0 1 1h2m0-9v10a1 1 0 0 0 1 1h1a1 1 0 0 0 1-1V7a1 1 0 0 0-1-1H7a1 1 0 0 0-1 1m3 5h6m0-5v10a1 1 0 0 0 1 1h1a1 1 0 0 0 1-1V7a1 1 0 0 0-1-1h-1a1 1 0 0 0-1 1m3 1h2a1 1 0 0 1 1 1v6a1 1 0 0 1-1 1h-2m4-4h-1"/></symbol><symbol id="close" viewBox="0 0 24 24"><path stroke="none" d="M0 0h24v24H0z"/><path d="M18 6 6 18M6 6l12 12"/></symbol><symbol id="error" viewBox="0 0 24 24"><path fill="none" d="M0 0h24v24H0z"/><path d="M17 3.34A10 10 0 1 1 2 12l.005-.324A10 10 0 0 1 17 3.34M12 15a1 1 0 0 0-1 1v.01a1 1 0 0 0 2 0V16a1 1 0 0 0-1-1m0-7a1 1 0 0 0-1 1v4a1 1 0 0 0 2 0V9a1 1 0 0 0-1-1"/></symbol><symbol id="home" viewBox="0 0 24 24"><path stroke="none" d="M0 0h24v24H0z"/><path d="M5 12H3l9-9 9 9h-2M5 12v7a2 2 0 0 0 2 2h10a2 2 0 0 0 2-2v-7"/><path d="M9 21v-6a2 2 0 0 1 2-2h2a2 2 0 0 1 2 2v6"/></symbol><symbol id="success" viewBox="0 0 24 24"><path fill="none" d="M0 0h24v24H0z"/><path d="M17 3.34a10 10 0 1 1-14.995 8.984L2 12l.005-.324A10 10 0 0 1 17 3.34m-1.293 5.953a1 1 0 0 0-1.32-.083l-.094.083L11 12.585l-1.293-1.292-.094-.083a1 1 0 0 0-1.403 1.403l.083.094 2 2 .094.083a1 1 0 0 0 1.226 0l.094-.083 4-4 .083-.094a1 1 0 0 0-.083-1.32"/></symbol><symbol id="user" viewBox="0 0 24 24"><path stroke="none" d="M0 0h24v24H0z"/><path d="M8 7a4 4 0 1 0 8 0 4 4 0 0 0-8 0M6 21v-2a4 4 0 0 1 4-4h4a4 4 0 0 1 4 4v2"/></symbol></defs></svg>