<svg xmlns="http://www.w3.org/2000/svg"><defs><symbol id="close" viewBox="0 0 24 24"><path stroke="none" d="M0 0h24v24H0z"/><path d="M18 6 6 18M6 6l12 12"/></symbol><symbol id="error" viewBox="0 0 24 24"><path fill="none" d="M0 0h24v24H0z"/><path d="M17 3.34A10 10 0 1 1 2 12l.005-.324A10 10 0 0 1 17 3.34M12 15a1 1 0 0 0-1 1v.01a1 1 0 0 0 2 0V16a1 1 0 0 0-1-1m0-7a1 1 0 0 0-1 1v4a1 1 0 0 0 2 0V9a1 1 0 0 0-1-1"/></symbol><symbol id="success" viewBox="0 0 24 24"><path fill="none" d="M0 0h24v24H0z"/><path d="M17 3.34a10 10 0 1 1-14.995 8.984L2 12l.005-.324A10 10 0 0 1 17 3.34m-1.293 5.953a1 1 0 0 0-1.32-.083l-.094.083L11 12.585l-1.293-1.292-.094-.083a1 1 0 0 0-1.403 1.403l.083.094 2 2 .094.083a1 1 0 0 0 1.226 0l.094-.083 4-4 .083-.094a1 1 0 0 0-.083-1.32"/></symbol></defs></svg>